<?xml version="1.0" encoding="utf-8"?>
<!-- Generator: Adobe Illustrator 16.0.0, SVG Export Plug-In . SVG Version: 6.00 Build 0)  -->
<!DOCTYPE svg PUBLIC "-//W3C//DTD SVG 1.1//EN" "http://www.w3.org/Graphics/SVG/1.1/DTD/svg11.dtd">
<svg version="1.1" id="Capa_1" xmlns="http://www.w3.org/2000/svg" xmlns:xlink="http://www.w3.org/1999/xlink" x="0px" y="0px"
	 width="600px" height="600px" viewBox="0 0 600 600" enable-background="new 0 0 600 600" xml:space="preserve">
<g id="_x38__2_">
	<g>
		<path fill="#B79021" d="M412.5,281.25h-93.75V187.5c0-10.35-8.4-18.75-18.75-18.75c-10.35,0-18.75,8.4-18.75,18.75v93.75H187.5
			c-10.35,0-18.75,8.4-18.75,18.75c0,10.35,8.4,18.75,18.75,18.75h93.75v93.75c0,10.35,8.4,18.75,18.75,18.75
			c10.35,0,18.75-8.4,18.75-18.75v-93.75h93.75c10.35,0,18.75-8.4,18.75-18.75C431.25,289.65,422.85,281.25,412.5,281.25z"/>
	</g>
</g>
</svg>
